<svg id="Layer_1" data-name="Layer 1" xmlns="http://www.w3.org/2000/svg" viewBox="0 0 84.56 24.66"><defs><style>.cls-1{fill:#004973;}.cls-2{fill:#28beb2;}.cls-3{fill:#00436f;}</style></defs><path class="cls-1" d="M48.21,10.35a1.28,1.28,0,0,1,.49-.58,1.35,1.35,0,0,1,.76-.21,1.25,1.25,0,0,1,1.19.78,3.06,3.06,0,0,1,.24,1h1.7a5.05,5.05,0,0,0-.45-1.89,2.56,2.56,0,0,0-1-1.13,3.17,3.17,0,0,0-1.63-.38,3.34,3.34,0,0,0-1.68.4,2.69,2.69,0,0,0-1.09,1.15,4,4,0,0,0-.37,1.8v4.18a3.9,3.9,0,0,0,.37,1.78,2.64,2.64,0,0,0,1.09,1.15,3.34,3.34,0,0,0,1.68.41,3.29,3.29,0,0,0,1.62-.38,2.61,2.61,0,0,0,1.06-1.14,5,5,0,0,0,.45-1.88h-1.7a3.06,3.06,0,0,1-.24,1,1.33,1.33,0,0,1-.48.58,1.26,1.26,0,0,1-.71.19,1.43,1.43,0,0,1-.76-.19,1.28,1.28,0,0,1-.49-.58,2.13,2.13,0,0,1-.18-.9V11.25A2.06,2.06,0,0,1,48.21,10.35Z" transform="translate(-7.72 -7.12)"/><path class="cls-1" d="M58.16,11.25a3.19,3.19,0,0,0-1.47-.32,3.12,3.12,0,0,0-1.46.32,2.1,2.1,0,0,0-.93.91A3,3,0,0,0,54,13.62v2.43a3.07,3.07,0,0,0,.32,1.47,2.09,2.09,0,0,0,.93.93,3.12,3.12,0,0,0,1.46.32,3.19,3.19,0,0,0,1.47-.32,2.12,2.12,0,0,0,.93-.92,3.15,3.15,0,0,0,.32-1.46V13.62a3.15,3.15,0,0,0-.32-1.46A2.1,2.1,0,0,0,58.16,11.25ZM57.74,16a1.26,1.26,0,0,1-.27.87,1.12,1.12,0,0,1-1.55,0,1.26,1.26,0,0,1-.27-.87V13.67a1.22,1.22,0,0,1,.27-.85,1.15,1.15,0,0,1,1.55,0,1.22,1.22,0,0,1,.27.85Z" transform="translate(-7.72 -7.12)"/><path class="cls-1" d="M64.65,12a2.57,2.57,0,0,0-.62-.75A1.72,1.72,0,0,0,63,10.92a1.91,1.91,0,0,0-1.11.32,1.94,1.94,0,0,0-.71.93,3.94,3.94,0,0,0-.25,1.46V16.1a3.94,3.94,0,0,0,.25,1.46A1.87,1.87,0,0,0,63,18.79a1.72,1.72,0,0,0,1.09-.36,1.91,1.91,0,0,0,.57-.76v1h1.67V8H64.65Zm-.12,4.69a.89.89,0,0,1-.35.39,1.08,1.08,0,0,1-.56.13,1,1,0,0,1-.78-.31,1.39,1.39,0,0,1-.27-.91V13.73a1.48,1.48,0,0,1,.27-.94,1,1,0,0,1,.78-.33,1.08,1.08,0,0,1,.56.14.89.89,0,0,1,.35.39,1.46,1.46,0,0,1,.12.62v2.5A1.41,1.41,0,0,1,64.53,16.72Z" transform="translate(-7.72 -7.12)"/><path class="cls-1" d="M73.46,15.51V14.2a4.46,4.46,0,0,0-.32-1.76,2.39,2.39,0,0,0-.92-1.12,2.66,2.66,0,0,0-1.47-.38,2.92,2.92,0,0,0-1.5.36,2.31,2.31,0,0,0-1,1A3.94,3.94,0,0,0,68,14v1.86a3.32,3.32,0,0,0,.35,1.58,2.26,2.26,0,0,0,1,1,3.36,3.36,0,0,0,1.56.34,2.86,2.86,0,0,0,1.67-.45A2.21,2.21,0,0,0,73.37,17l-1.45-.52a1.13,1.13,0,0,1-.41.59,1.08,1.08,0,0,1-.68.2,1.24,1.24,0,0,1-1-.35,1.4,1.4,0,0,1-.33-1v-.38Zm-3.6-2.69a1.08,1.08,0,0,1,.89-.39,1,1,0,0,1,.82.36,1.47,1.47,0,0,1,.31,1v.47H69.55v-.33A1.72,1.72,0,0,1,69.86,12.82Z" transform="translate(-7.72 -7.12)"/><path class="cls-2" d="M48.21,22.57A1.33,1.33,0,0,1,48.7,22a1.43,1.43,0,0,1,.76-.2,1.28,1.28,0,0,1,.71.19,1.39,1.39,0,0,1,.48.58,3.06,3.06,0,0,1,.24,1h1.7a5,5,0,0,0-.45-1.88,2.54,2.54,0,0,0-1-1.14,3.27,3.27,0,0,0-1.63-.38,3.34,3.34,0,0,0-1.68.41,2.69,2.69,0,0,0-1.09,1.15,4,4,0,0,0-.37,1.79v4.18a3.94,3.94,0,0,0,.37,1.79,2.69,2.69,0,0,0,1.09,1.15,3.34,3.34,0,0,0,1.68.4,3.29,3.29,0,0,0,1.62-.37,2.61,2.61,0,0,0,1.06-1.14,5,5,0,0,0,.45-1.88h-1.7a3.06,3.06,0,0,1-.24,1,1.39,1.39,0,0,1-.48.58,1.26,1.26,0,0,1-.71.19,1.35,1.35,0,0,1-.76-.2,1.25,1.25,0,0,1-.49-.57,2.14,2.14,0,0,1-.18-.91V23.47A2.13,2.13,0,0,1,48.21,22.57Z" transform="translate(-7.72 -7.12)"/><path class="cls-2" d="M58.16,23.47a3.62,3.62,0,0,0-2.93,0,2.12,2.12,0,0,0-.93.92A3,3,0,0,0,54,25.85v2.43a3.07,3.07,0,0,0,.32,1.47,2.2,2.2,0,0,0,.93.93,3.62,3.62,0,0,0,2.93,0,2.14,2.14,0,0,0,.93-.93,3,3,0,0,0,.32-1.45V25.85a3,3,0,0,0-.32-1.46A2.12,2.12,0,0,0,58.16,23.47Zm-.42,4.77a1.26,1.26,0,0,1-.27.87,1.15,1.15,0,0,1-1.55,0,1.26,1.26,0,0,1-.27-.87V25.9a1.22,1.22,0,0,1,.27-.85,1,1,0,0,1,.78-.3,1,1,0,0,1,.77.3,1.22,1.22,0,0,1,.27.85Z" transform="translate(-7.72 -7.12)"/><path class="cls-2" d="M64.64,28.41a1.05,1.05,0,0,1-.26.77,1.22,1.22,0,0,1-1.54,0,1.05,1.05,0,0,1-.26-.78V23.28H60.91v5.14a2.91,2.91,0,0,0,.55,1.92A1.94,1.94,0,0,0,63,31a1.63,1.63,0,0,0,1.07-.36,1.88,1.88,0,0,0,.54-.77v1H66.3v-7.6H64.64Z" transform="translate(-7.72 -7.12)"/><path class="cls-2" d="M71.76,23.16a2,2,0,0,0-1.19.38,2.64,2.64,0,0,0-.73.82V23.28H68.13v7.6h1.71V26.32a1.56,1.56,0,0,1,.4-1.1,1.47,1.47,0,0,1,1.09-.39,1.64,1.64,0,0,1,.4,0A.84.84,0,0,1,72,25l.53-1.56a1.18,1.18,0,0,0-.35-.23A1.33,1.33,0,0,0,71.76,23.16Z" transform="translate(-7.72 -7.12)"/><path class="cls-2" d="M77.61,26.67a6.65,6.65,0,0,0-1.18-.33h-.16c-.32-.06-.57-.12-.75-.17a1.08,1.08,0,0,1-.45-.24.53.53,0,0,1-.17-.43.69.69,0,0,1,.26-.59,1.25,1.25,0,0,1,.78-.21,1.37,1.37,0,0,1,.75.22,1.48,1.48,0,0,1,.5.64l1.42-.67a2.38,2.38,0,0,0-.54-.93,2.28,2.28,0,0,0-.89-.57,3.62,3.62,0,0,0-1.24-.2,3.34,3.34,0,0,0-1.41.28,2,2,0,0,0-.89.79,2.4,2.4,0,0,0-.31,1.26,2.08,2.08,0,0,0,.29,1.19,1.6,1.6,0,0,0,.73.64,4.75,4.75,0,0,0,1.08.34l0,0h0a.42.42,0,0,0,.16,0l.14,0a6,6,0,0,1,.73.18,1.06,1.06,0,0,1,.44.25.6.6,0,0,1,.18.46.73.73,0,0,1-.31.62,1.43,1.43,0,0,1-.87.23,1.5,1.5,0,0,1-.9-.27,1.64,1.64,0,0,1-.61-.75l-1.41.69a2.53,2.53,0,0,0,.54,1,2.49,2.49,0,0,0,1,.62,4.1,4.1,0,0,0,1.36.2,3.79,3.79,0,0,0,1.5-.27,2.1,2.1,0,0,0,1-.82,2.37,2.37,0,0,0,.33-1.28,2.34,2.34,0,0,0-.32-1.3A1.77,1.77,0,0,0,77.61,26.67Z" transform="translate(-7.72 -7.12)"/><path class="cls-2" d="M84.33,23.55a2.63,2.63,0,0,0-1.46-.39,3,3,0,0,0-1.51.36,2.37,2.37,0,0,0-1,1.05,3.73,3.73,0,0,0-.33,1.65v1.85a3.34,3.34,0,0,0,.34,1.59,2.29,2.29,0,0,0,1,1A3.28,3.28,0,0,0,83,31a2.81,2.81,0,0,0,1.66-.45,2.22,2.22,0,0,0,.86-1.35L84,28.68a1.19,1.19,0,0,1-.41.59,1.14,1.14,0,0,1-.68.2,1.26,1.26,0,0,1-1-.35,1.42,1.42,0,0,1-.34-1v-.39h3.91v-1.3a4.47,4.47,0,0,0-.31-1.76A2.36,2.36,0,0,0,84.33,23.55ZM84,26.47H81.66v-.33A1.69,1.69,0,0,1,82,25.05a1.08,1.08,0,0,1,.89-.39,1,1,0,0,1,.82.36A1.52,1.52,0,0,1,84,26Z" transform="translate(-7.72 -7.12)"/><path class="cls-2" d="M92,27.32a1.77,1.77,0,0,0-.8-.65A6.65,6.65,0,0,0,90,26.34h-.16c-.32-.06-.57-.12-.75-.17a1.08,1.08,0,0,1-.45-.24.54.54,0,0,1-.18-.43.7.7,0,0,1,.27-.59,1.24,1.24,0,0,1,.77-.21,1.38,1.38,0,0,1,.76.22,1.56,1.56,0,0,1,.5.64l1.42-.67a2.38,2.38,0,0,0-.54-.93,2.35,2.35,0,0,0-.89-.57,3.62,3.62,0,0,0-1.24-.2,3.34,3.34,0,0,0-1.41.28,2,2,0,0,0-.9.79,2.5,2.5,0,0,0-.3,1.26,2.08,2.08,0,0,0,.29,1.19,1.63,1.63,0,0,0,.72.64,5,5,0,0,0,1.09.34l0,0h0a.42.42,0,0,0,.15,0l.15,0a6,6,0,0,1,.73.18,1.06,1.06,0,0,1,.44.25.6.6,0,0,1,.17.46.72.72,0,0,1-.3.62,1.43,1.43,0,0,1-.87.23,1.55,1.55,0,0,1-.91-.27,1.69,1.69,0,0,1-.6-.75l-1.41.69a2.53,2.53,0,0,0,.54,1,2.49,2.49,0,0,0,1,.62,4.08,4.08,0,0,0,1.35.2A3.81,3.81,0,0,0,91,30.72a2.1,2.1,0,0,0,1-.82,2.37,2.37,0,0,0,.33-1.28A2.34,2.34,0,0,0,92,27.32Z" transform="translate(-7.72 -7.12)"/><polygon class="cls-3" points="14.99 13.48 12.3 13.48 19.51 0 22.2 0 14.99 13.48"/><polygon class="cls-3" points="17.28 24.66 3.93 18.34 3.93 10.36 0 8.09 0 6.4 10.2 0.66 10.2 3.36 3.18 7.24 10.2 11.28 10.2 13.97 6.26 11.7 6.26 16.86 17.28 22.09 28.24 16.9 28.24 11.71 24.31 13.97 24.31 11.28 31.33 7.24 24.31 3.36 24.31 0.66 34.5 6.4 34.5 8.09 30.57 10.36 30.57 18.37 29.2 19.03 17.28 24.66"/><polygon class="cls-2" points="21.09 0.67 19.91 0.67 13.41 12.82 14.59 12.82 21.09 0.67"/><polygon class="cls-2" points="24.98 1.8 24.98 2.97 32.69 7.23 24.98 11.66 24.98 12.82 28.91 10.56 28.91 17.32 17.28 22.82 5.59 17.28 5.59 10.54 9.53 12.82 9.53 11.66 1.82 7.23 9.53 2.97 9.53 1.8 0.67 6.79 0.67 7.71 4.59 9.97 4.59 17.92 5.59 18.4 16.13 23.38 17.28 23.93 18.45 23.38 28.91 18.43 29.91 17.95 29.91 9.97 33.83 7.71 33.83 6.79 24.98 1.8"/></svg>