<svg id="Layer_1" data-name="Layer 1" xmlns="http://www.w3.org/2000/svg" viewBox="0 0 1920 871"><defs><style>.cls-1{fill:#383838;}.cls-2{fill:#004973;}.cls-3{fill:#28beb2;}.cls-4{fill:#00436f;}.cls-5{opacity:0.1;}</style></defs><rect class="cls-1" width="1920" height="871"/><path class="cls-2" d="M1339.3,532.07a15.46,15.46,0,0,1,5.66-6.66,15.81,15.81,0,0,1,8.75-2.34,14.49,14.49,0,0,1,8,2.22,15.59,15.59,0,0,1,5.53,6.66,32.5,32.5,0,0,1,2.68,11h19.53q-.84-12.82-5.15-21.54a29.51,29.51,0,0,0-12-13q-7.65-4.32-18.64-4.32-11.14,0-19.28,4.61a30.54,30.54,0,0,0-12.44,13.2q-4.32,8.6-4.32,20.5v47.86q0,11.89,4.32,20.45a30.61,30.61,0,0,0,12.44,13.16q8.13,4.6,19.28,4.6,10.82,0,18.52-4.31a29.65,29.65,0,0,0,12.07-13q4.37-8.73,5.2-21.55H1370a32.5,32.5,0,0,1-2.68,11,15.63,15.63,0,0,1-5.49,6.67,14.44,14.44,0,0,1-8.09,2.22,16.21,16.21,0,0,1-8.75-2.26,14.83,14.83,0,0,1-5.66-6.63,24.24,24.24,0,0,1-2-10.3V542.35A24.08,24.08,0,0,1,1339.3,532.07Z"/><path class="cls-2" d="M1453.23,542.35c-4.65-2.41-10.26-3.61-16.78-3.61s-12.14,1.2-16.77,3.61A24.65,24.65,0,0,0,1409,552.86a35,35,0,0,0-3.69,16.64v27.83a35.63,35.63,0,0,0,3.69,16.81,24.73,24.73,0,0,0,10.66,10.64q6.94,3.65,16.77,3.64c6.52,0,12.13-1.21,16.78-3.64a24.6,24.6,0,0,0,10.66-10.56,35.4,35.4,0,0,0,3.65-16.64V569.5a35.43,35.43,0,0,0-3.65-16.64A24.38,24.38,0,0,0,1453.23,542.35Zm-4.8,54.56c0,4.3-1,7.62-3.11,9.93s-5,3.48-8.87,3.48-6.84-1.16-8.9-3.48-3.11-5.63-3.11-9.93V570.09q0-6.29,3.16-9.72c2.1-2.29,5-3.44,8.85-3.44s6.79,1.15,8.87,3.44,3.11,5.53,3.11,9.72Z"/><path class="cls-2" d="M1527.46,551.34a27.6,27.6,0,0,0-7.08-8.58,19.84,19.84,0,0,0-12.12-4.1,22,22,0,0,0-12.74,3.64,23,23,0,0,0-8.09,10.61,44.76,44.76,0,0,0-2.81,16.76v28.25a43.8,43.8,0,0,0,2.81,16.63,22.63,22.63,0,0,0,8.18,10.48,22.38,22.38,0,0,0,12.9,3.65,19.66,19.66,0,0,0,12.45-4.07,22.48,22.48,0,0,0,6.5-8.76v11.32h19.19V505.3h-19.19Zm-1.38,53.7a9.87,9.87,0,0,1-4,4.44,12.54,12.54,0,0,1-6.37,1.51q-5.71,0-8.9-3.65c-2.12-2.42-3.17-5.88-3.17-10.35V570.76q0-6.87,3.17-10.69a11,11,0,0,1,8.9-3.81,12.35,12.35,0,0,1,6.37,1.55,10.24,10.24,0,0,1,4,4.48,16.82,16.82,0,0,1,1.38,7.13V598A16.55,16.55,0,0,1,1526.08,605Z"/><path class="cls-2" d="M1628.29,591.13V576.21q0-11.75-3.64-20.2a27.57,27.57,0,0,0-10.57-12.83q-6.91-4.35-16.73-4.36-10.14,0-17.25,4.11a26.89,26.89,0,0,0-10.91,11.94q-3.75,7.85-3.76,18.91V595q0,10.74,3.9,18.19a26.32,26.32,0,0,0,11.23,11.36q7.32,3.88,17.89,3.89,11.73,0,19.07-5.15t9.76-15.46l-16.59-5.87a13.42,13.42,0,0,1-4.65,6.74,12.85,12.85,0,0,1-7.84,2.31c-4.65,0-8.24-1.34-10.81-4s-3.86-6.51-3.86-11.48v-4.36Zm-41.15-30.72q3.58-4.49,10.21-4.49a11.65,11.65,0,0,1,9.36,4.11q3.46,4.11,3.56,11.15l-.09,5.45h-26.65v-3.78Q1583.53,564.9,1587.14,560.41Z"/><path class="cls-3" d="M1231.58,650.63a15.55,15.55,0,0,1,5.67-6.66,15.82,15.82,0,0,1,8.75-2.35,14.44,14.44,0,0,1,8,2.23,15.53,15.53,0,0,1,5.53,6.66,32.43,32.43,0,0,1,2.68,11h19.54q-.84-12.79-5.16-21.53a29.38,29.38,0,0,0-12-13Q1257,622.6,1246,622.6q-11.14,0-19.28,4.61a30.6,30.6,0,0,0-12.44,13.2Q1210,649,1210,660.9v47.86q0,11.91,4.32,20.45a30.55,30.55,0,0,0,12.44,13.16Q1234.85,747,1246,747q10.82,0,18.53-4.32a29.6,29.6,0,0,0,12.07-13q4.37-8.71,5.2-21.54h-19.54a32.56,32.56,0,0,1-2.68,11,15.6,15.6,0,0,1-5.49,6.66A14.37,14.37,0,0,1,1246,728a16.3,16.3,0,0,1-8.75-2.26,15,15,0,0,1-5.67-6.63,24.37,24.37,0,0,1-2-10.31V660.9A24.18,24.18,0,0,1,1231.58,650.63Z"/><path class="cls-3" d="M1345.54,660.9a36.31,36.31,0,0,0-16.79-3.6q-9.82,0-16.77,3.6a24.65,24.65,0,0,0-10.65,10.52,34.92,34.92,0,0,0-3.69,16.64v27.83a35.69,35.69,0,0,0,3.69,16.81A24.68,24.68,0,0,0,1312,743.33q6.94,3.66,16.77,3.65c6.52,0,12.13-1.21,16.79-3.65a24.47,24.47,0,0,0,10.65-10.56q3.64-6.9,3.65-16.64V688.06a35.28,35.28,0,0,0-3.65-16.64A24.38,24.38,0,0,0,1345.54,660.9Zm-4.81,54.56c0,4.32-1,7.62-3.11,9.94s-5,3.47-8.87,3.47-6.83-1.15-8.9-3.47-3.1-5.62-3.1-9.94V688.64c0-4.18,1.06-7.42,3.14-9.72s5-3.43,8.86-3.43,6.8,1.15,8.87,3.43,3.11,5.54,3.11,9.72Z"/><path class="cls-3" d="M1419.68,717.4q0,5.86-3,8.88t-8.72,3c-3.87,0-6.81-1-8.85-3.14s-3.06-5.08-3.06-8.93V658.72h-19.12v58.84q0,14.34,6.3,21.89t18,7.53a18.52,18.52,0,0,0,12.27-4.15,22.92,22.92,0,0,0,6.17-8.86v11.76h19v-87h-19Z"/><path class="cls-3" d="M1501.14,657.3a23.24,23.24,0,0,0-13.65,4.36,30.46,30.46,0,0,0-8.3,9.45V658.72h-19.62v87h19.62V693.51q.07-8,4.52-12.58t12.49-4.52a17.79,17.79,0,0,1,4.61.54,10.26,10.26,0,0,1,3.44,1.63l6-17.85a11.15,11.15,0,0,0-4-2.55A14.34,14.34,0,0,0,1501.14,657.3Z"/><path class="cls-3" d="M1568.13,697.45a80.06,80.06,0,0,0-13.5-3.69,2,2,0,0,1-.43,0,1.23,1.23,0,0,1-.41-.12,2.92,2.92,0,0,1-1-.17c-3.69-.72-6.58-1.38-8.64-2a12.58,12.58,0,0,1-5.11-2.73,6.37,6.37,0,0,1-2-4.94,8,8,0,0,1,3.06-6.79q3-2.36,8.84-2.35a14.79,14.79,0,0,1,8.59,2.51,16.73,16.73,0,0,1,5.74,7.3l16.27-7.71a27.06,27.06,0,0,0-6.13-10.61,25.85,25.85,0,0,0-10.27-6.53,41.21,41.21,0,0,0-14.11-2.23,37.93,37.93,0,0,0-16.18,3.14,22.79,22.79,0,0,0-10.23,9.1,27.81,27.81,0,0,0-3.52,14.42c0,5.7,1.11,10.23,3.31,13.62a19.45,19.45,0,0,0,8.34,7.33,63.17,63.17,0,0,0,12.4,3.86,4.85,4.85,0,0,1,.55.16,1.17,1.17,0,0,0,.46.08,8.19,8.19,0,0,0,1.81.47c.58.08,1.13.18,1.63.29a82.1,82.1,0,0,1,8.38,2.06,12.88,12.88,0,0,1,5,2.88,7,7,0,0,1,2,5.29,8.31,8.31,0,0,1-3.47,7.08q-3.49,2.55-10,2.56a18,18,0,0,1-10.3-3,19.57,19.57,0,0,1-7-8.6l-16.1,7.89a27.5,27.5,0,0,0,6.19,11.48,26.39,26.39,0,0,0,11.11,7.12,46.92,46.92,0,0,0,15.47,2.35,42.61,42.61,0,0,0,17.27-3.18,23.81,23.81,0,0,0,11-9.31,27.43,27.43,0,0,0,3.77-14.67q0-9.45-3.73-14.87A19.83,19.83,0,0,0,1568.13,697.45Z"/><path class="cls-3" d="M1645,661.74c-4.62-2.91-10.18-4.36-16.73-4.36-6.76,0-12.52,1.38-17.26,4.1a26.89,26.89,0,0,0-10.9,11.95q-3.77,7.85-3.77,18.9v21.21q0,10.73,3.9,18.19a26.38,26.38,0,0,0,11.23,11.36q7.34,3.88,17.89,3.89,11.74,0,19.07-5.15t9.77-15.46l-16.6-5.88a13.35,13.35,0,0,1-4.65,6.75,12.88,12.88,0,0,1-7.83,2.3q-7,0-10.82-4T1614.48,714v-4.36h44.75V694.76q0-11.73-3.64-20.2A27.68,27.68,0,0,0,1645,661.74Zm-3.9,33.45h-26.65v-3.78c0-5.31,1.19-9.45,3.61-12.45s5.8-4.48,10.21-4.48a11.68,11.68,0,0,1,9.35,4.1c2.32,2.75,3.5,6.46,3.57,11.16Z"/><path class="cls-3" d="M1732.27,705a19.73,19.73,0,0,0-9.09-7.5,80.06,80.06,0,0,0-13.5-3.69,1.87,1.87,0,0,1-.42,0,1.22,1.22,0,0,1-.42-.12,2.89,2.89,0,0,1-.5,0,2.83,2.83,0,0,1-.5-.13c-3.69-.72-6.57-1.38-8.64-2a12.58,12.58,0,0,1-5.11-2.73,6.37,6.37,0,0,1-2-4.94,8,8,0,0,1,3.06-6.79q3.06-2.36,8.84-2.35a14.84,14.84,0,0,1,8.6,2.51,16.78,16.78,0,0,1,5.73,7.3l16.27-7.71a27.16,27.16,0,0,0-6.12-10.61,26,26,0,0,0-10.27-6.53,41.31,41.31,0,0,0-14.12-2.23,38,38,0,0,0-16.18,3.14,22.79,22.79,0,0,0-10.23,9.1,27.91,27.91,0,0,0-3.52,14.42c0,5.7,1.11,10.23,3.31,13.62a19.45,19.45,0,0,0,8.34,7.33,63.39,63.39,0,0,0,12.4,3.86,3.86,3.86,0,0,1,.55.16,1.21,1.21,0,0,0,.46.08,8.34,8.34,0,0,0,1.81.47c.58.08,1.13.18,1.63.29a82.1,82.1,0,0,1,8.38,2.06,12.88,12.88,0,0,1,5,2.88,7,7,0,0,1,2,5.29,8.31,8.31,0,0,1-3.47,7.08q-3.49,2.55-10,2.56a18,18,0,0,1-10.3-3,19.57,19.57,0,0,1-7-8.6l-16.1,7.89a27.4,27.4,0,0,0,6.2,11.48,26.29,26.29,0,0,0,11.1,7.12A46.92,46.92,0,0,0,1704,747a42.61,42.61,0,0,0,17.27-3.18,23.81,23.81,0,0,0,11-9.31,27.43,27.43,0,0,0,3.77-14.67Q1736,710.37,1732.27,705Z"/><polygon class="cls-4" points="1439.05 326.66 1398.81 326.66 1506.92 124.47 1547.23 124.47 1439.05 326.66"/><polygon class="cls-4" points="1473.47 494.26 1273.23 399.47 1273.23 279.78 1214.33 245.84 1214.33 220.45 1367.27 134.34 1367.27 174.87 1262 233.05 1367.27 293.59 1367.27 334.02 1308.17 299.88 1308.17 377.3 1473.49 455.64 1637.79 377.9 1637.79 300.07 1578.91 334 1578.91 293.59 1684.17 233.05 1578.91 174.87 1578.91 134.33 1731.63 220.46 1731.63 245.84 1672.73 279.78 1672.73 399.87 1652.1 409.79 1473.47 494.26"/><polygon class="cls-3" points="1530.55 134.45 1512.91 134.45 1415.46 316.68 1433.07 316.68 1530.55 134.45"/><polygon class="cls-3" points="1588.88 151.42 1588.88 168.99 1704.48 232.88 1588.88 299.36 1588.88 316.73 1647.78 282.79 1647.78 384.21 1473.48 466.67 1298.19 383.62 1298.19 282.59 1357.29 316.73 1357.29 299.36 1241.69 232.88 1357.29 168.99 1357.29 151.42 1224.32 226.29 1224.32 240.06 1283.21 274 1283.21 393.2 1298.19 400.39 1456.11 475.06 1473.48 483.24 1491.05 475.06 1647.78 400.79 1662.75 393.6 1662.75 274 1721.65 240.06 1721.65 226.29 1588.88 151.42"/><g class="cls-5"><polygon class="cls-4" points="132.81 125.94 0 374.18 0 239.37 60.65 125.94 132.81 125.94"/><polygon class="cls-4" points="463 297.81 463 343.24 357.53 404.02 357.53 619.06 320.6 636.81 0.74 788.06 0 787.71 0 718.53 0.78 718.9 294.97 579.71 294.97 440.35 189.54 501.11 189.54 428.76 378.03 320.36 189.54 216.18 189.54 143.59 463 297.81"/><polygon class="cls-3" points="102.96 143.81 0 336.27 0 277.25 71.36 143.81 102.96 143.81"/><polygon class="cls-3" points="445.13 308.24 445.13 332.91 339.67 393.68 339.67 607.82 312.86 620.69 32.23 753.68 0.77 768.33 0 767.97 0 738.3 0.77 738.66 312.86 591.02 312.86 409.41 207.4 470.19 207.4 439.08 414.39 320.04 207.4 205.65 207.4 174.19 445.13 308.24"/></g></svg>